# xmcd
#
# Track frame offsets:
#	150
#	10885
#	23048
#	38868
#	51560
#	63096
#	74729
#	91148
#	101290
#	115257
#
# Disc length: 1723 seconds
#
# Revision: 0
# Processed by: cddbd v1.5.1PL0 Copyright (c) Steve Scherf et al.
# Submitted via: dBpowerAMP V4.0
#
DISCID=7f06b90a
DTITLE=George Strait - Pure Country
DYEAR=1992
DGENRE=Country
TTITLE0=Heartland
TTITLE1=Baby Your Baby
TTITLE2=I Cross My Heart
TTITLE3=When Did You Stop Loving Me
TTITLE4=She Lays It All On The Line
TTITLE5=Overnight Male
TTITLE6=Last In Love
TTITLE7=Thoughts Of A Fool
TTITLE8=The King Of Broken Hearts
TTITLE9=Where The Sidewalk Ends
EXTD=
EXTT0=
EXTT1=
EXTT2=
EXTT3=
EXTT4=
EXTT5=
EXTT6=
EXTT7=
EXTT8=
EXTT9=
PLAYORDER=
